<svg width="40" height="35" viewBox="0 0 40 35" fill="none" xmlns="http://www.w3.org/2000/svg">
<path d="M21.8443 15.8394C21.8443 15.2849 21.414 14.8352 20.883 14.8352H18.7312C19.1795 12.5456 21.1202 10.8242 23.4485 10.8242C25.7768 10.8242 27.7174 12.5484 28.1643 14.838H24.7312C24.2002 14.838 23.7699 15.2863 23.7699 15.8394C23.7699 16.3939 24.2002 16.8435 24.7312 16.8435H28.2595V18.849H24.7312C24.2002 18.849 23.7699 19.2987 23.7699 19.8518C23.7699 20.4063 24.2002 20.8559 24.7312 20.8559H28.1643C27.7809 22.8214 26.2968 24.369 24.4112 24.7676V27.878C24.4112 28.4311 23.9795 28.8807 23.4485 28.8807C22.9174 28.8807 22.4857 28.4311 22.4857 27.878V24.7676C20.6002 24.3677 19.1161 22.8214 18.734 20.8559H20.8816C21.414 20.8559 21.8443 20.4063 21.8443 19.8518C21.8443 19.2987 21.414 18.849 20.883 18.849H18.6375V16.8435H20.8816C21.414 16.8435 21.8443 16.3939 21.8443 15.8408" fill="black"/>
<path d="M23.4484 6.81042C18.8553 6.81042 15.098 10.5359 14.8056 15.2463C14.3076 14.9762 13.75 14.8349 13.1835 14.8352C11.2346 14.8352 9.65527 16.4821 9.65527 18.5139V21.1897C9.65527 23.2201 11.2346 24.867 13.1835 24.867C13.2498 24.867 13.316 24.8642 13.3808 24.8614V24.867C15.2208 24.867 16.7118 23.3125 16.7118 21.3939V15.838C16.7118 11.9608 19.7284 8.81732 23.4484 8.81732C27.1684 8.81732 30.1849 11.9608 30.1849 15.838V21.3939C30.1849 23.3111 31.6746 24.867 33.5159 24.867V24.8614C33.5808 24.8656 33.647 24.867 33.7132 24.867C35.6621 24.867 37.2414 23.2201 37.2414 21.1883V18.5125C37.2414 16.4821 35.6621 14.8352 33.7132 14.8352C33.1283 14.8352 32.5766 14.9842 32.0911 15.2463C31.7987 10.5359 28.0401 6.81042 23.4484 6.81042Z" fill="black"/>
</svg>
