<?xml version="1.0" encoding="utf-8"?>
<!-- Generator: Adobe Illustrator 15.1.0, SVG Export Plug-In . SVG Version: 6.00 Build 0)  -->
<!DOCTYPE svg PUBLIC "-//W3C//DTD SVG 1.1//EN" "http://www.w3.org/Graphics/SVG/1.1/DTD/svg11.dtd">
<svg version="1.1" id="_x23_Layer_1" xmlns="http://www.w3.org/2000/svg" xmlns:xlink="http://www.w3.org/1999/xlink" x="0px"
	 y="0px" width="300px" height="300px" viewBox="0 0 300 300" enable-background="new 0 0 300 300" xml:space="preserve">
<path fill-rule="evenodd" clip-rule="evenodd" fill="#B31F24" stroke="#000000" stroke-width="1.0001" stroke-linecap="round" stroke-miterlimit="2.6131" d="
	M154.792,33.616c-10.592,5.737-17.213,8.827-28.688,18.096c-11.475,9.269-40.164,27.364-49.874,34.426s-35.31,24.275-41.488,29.13
	c-6.179,4.855-24.275,14.565-28.247,22.509c-3.973,7.945-7.945,21.627-7.503,32.662s5.296,22.95,7.503,27.364
	c2.207,4.414,29.571,19.861,29.571,19.861s41.488,18.096,50.315,23.393c8.827,5.296,24.275,7.503,32.22,13.24
	c7.944,5.738,22.951,12.8,27.365,11.917s20.303-13.241,27.806-21.186s30.895-28.247,41.047-36.191
	c10.151-7.944,34.427-28.248,41.93-34.427s18.096-16.771,23.833-22.068c5.738-5.296,13.241-9.709,11.476-12.799
	c-1.766-3.09-13.413-5.54-16.062-7.305c-2.648-1.766,2.821-29.329,5.027-32.86c2.207-3.531,6.18-13.683,5.297-16.772
	s-8.827-7.062-14.124-9.269c-5.297-2.207-33.102-14.124-38.84-16.331c-5.738-2.207-41.488-14.124-47.227-16.331
	C180.392,38.471,166.709,30.526,154.792,33.616z"/>
<path fill-rule="evenodd" clip-rule="evenodd" fill="none" stroke="#E97E24" stroke-width="1.0001" stroke-linecap="round" stroke-miterlimit="2.6131" d="
	M152.145,47.74c-3.973,3.972-21.186,15.006-31.337,23.392c-10.151,8.386-31.336,22.068-40.605,29.13
	c-9.269,7.062-36.192,25.158-36.192,25.158l3.531,4.855c0,0-0.882,3.089-4.414,4.414c-3.531,1.324,18.096,6.621,23.393,10.593
	s40.605,14.565,44.578,19.861c3.973,5.297,24.275,13.683,26.482,14.565c2.207,0.883,7.062-4.635,11.476-4.635
	c4.414,0,12.358,2.428,12.358,2.428s23.833-15.448,28.688-19.861c4.855-4.414,30.013-27.365,37.074-32.22
	c7.063-4.855,30.014-22.068,32.661-24.275c2.648-2.207,9.306-6.252,8.166-7.282c-1.141-1.03-5.926-3.006-6.62-5.738
	c-0.695-2.732,2.721-5.701,3.31-6.841c0.588-1.14-19.2-8.386-25.82-10.372c-6.62-1.986-33.765-13.903-38.619-15.228
	c-4.854-1.324-23.613-8.165-27.144-8.606c-2.455,2.4-3.316,3.746-9.931,4.193C156.563,51.717,152.145,49.946,152.145,47.74z"/>
<path fill-rule="evenodd" clip-rule="evenodd" fill="#ECE4D4" stroke="#000000" stroke-width="1.0001" stroke-linecap="round" stroke-miterlimit="2.6131" d="
	M19.625,141.42c-3.22,1.763-1.38,0.849-2.687,2.85c1.749,4.427-3.355,2.528-1.67,5.92c1.751,3.525,1.029-1.589-0.24,3.071
	c0.222,0.232,0.448,1.778,2.043,2.427c0.315,1.513-4.361,0.455-0.353,4.987c0.84,0.95-4.668,2.947-0.46,5.518
	c0.361,0.221-3.378,2.689,0.151,4.521c0.109,0.494-3.831,2.502-0.833,5.649c0.428,0.449-4.11,2.471,0.681,5.057
	c0.065,0.035-3.485,5.17-0.145,5.259c0.341,0.01-2.698,0.277,0.126,3.588c0.094,0.11,0.075-0.737,1.399,1.027
	c1.324,1.766,7.063,5.296,11.255,7.944c4.193,2.648,18.096,8.386,21.627,11.034c3.531,2.648,28.689,13.241,32.44,15.448
	s21.848,8.607,25.158,11.034c3.311,2.428,25.378,11.255,28.247,13.241c2.869,1.985,8.828,3.531,9.931,3.752
	c1.103,0.22,23.833-20.304,28.467-24.496c4.635-4.193,18.759-16.993,21.627-20.082c2.869-3.09,22.731-18.758,26.924-22.51
	s17.434-15.668,22.73-19.641c5.296-3.973,15.668-12.138,19.199-15.228c3.531-3.089,15.37-11.825,15.37-11.825
	s-5.304-10.022-5.083-13.774c0.221-3.751,1.402-13.227,3.296-15.889s4.885-9.077,4.885-9.077s-19.571,13.05-22.661,15.698
	c-3.089,2.648-17.434,14.564-20.744,17.654c-3.31,3.09-12.138,9.269-14.123,10.814c-1.986,1.544-25.6,20.523-30.234,24.274
	c-4.634,3.752-14.564,9.71-17.213,12.138c-2.647,2.428-3.531,3.311-7.062,6.4c-3.531,3.089-9.489,6.399-13.903,6.841
	c-4.413,0.441-28.247-3.752-30.454-4.634c-2.207-0.883-5.517-1.766-8.386-3.531c-2.869-1.766-42.15-18.979-44.798-20.082
	c-2.648-1.104-26.923-12.8-31.116-14.124C38.824,151.351,19.404,141.42,19.625,141.42z"/>
<path fill-rule="evenodd" clip-rule="evenodd" fill="#D1B997" d="M75.678,193.06c3.972,1.766,61.791,24.496,63.556,24.496
	s20.082-11.255,21.848-14.124c1.766-2.868,43.033-33.323,43.033-33.323l-63.998,51.198
	C140.117,221.307,75.678,194.163,75.678,193.06z"/>
<path fill-rule="evenodd" clip-rule="evenodd" fill="#9C7D54" stroke="#9C7D54" stroke-width="1.0001" stroke-linecap="round" stroke-miterlimit="2.6131" d="
	M36.617,163.047c3.972,2.648,19.861,7.283,23.171,9.489c3.311,2.207,17.654,8.386,21.406,10.813
	c3.751,2.428,18.317,10.372,18.317,10.372s-18.537-7.944-22.51-10.151s-19.861-8.606-22.068-10.372
	C52.727,171.433,36.617,163.488,36.617,163.047z"/>
<path fill-rule="evenodd" clip-rule="evenodd" fill="#371111" stroke="#000000" stroke-width="1.0001" stroke-linecap="round" stroke-miterlimit="2.6131" d="
	M10.797,140.537c-2.428,3.752-4.634,10.151-5.296,18.979c-0.662,8.828-1.766,16.11-0.662,21.848
	c1.104,5.738,1.766,12.138,2.869,13.021c1.104,0.883,7.062-4.193,7.062-4.193s-1.765-10.371-1.545-12.357
	c0.221-1.986,0.221-18.317,0.883-21.406c0.662-3.09,2.207-13.903,2.207-13.903S11.238,140.758,10.797,140.537z"/>
<path fill-rule="evenodd" clip-rule="evenodd" fill="#CE9B54" stroke="#000000" stroke-width="1.0001" stroke-linecap="round" stroke-miterlimit="2.6131" d="
	M61.113,172.536c-2.648,1.545-6.179,5.518-8.386,8.827c-2.207,3.311-3.089,9.269-2.207,14.345
	c0.883,5.075,3.752,12.358,1.986,15.007c-1.765,2.647-6.399,5.075-8.606,7.062s-1.986,3.53-3.973,5.517
	c-1.986,1.986-10.813,7.063-14.344,10.151c-3.531,3.09-8.386,6.621-11.475,8.606c-3.09,1.986-6.621,2.207-6.621,2.207
	s7.282,2.869,12.358,0.221c5.076-2.647,9.71-5.075,14.345-6.841c4.634-1.766,6.841-4.414,7.944-3.311
	c1.104,1.104-3.531,5.076-5.517,8.387c-1.986,3.31-4.193,6.179-4.855,10.813c-0.662,4.635-0.883,4.855-0.883,7.063
	s5.296-6.18,9.931-10.593c4.634-4.414,10.593-9.489,13.683-11.476s4.414-3.531,5.738-5.959c1.324-2.427,4.855-7.503,8.386-9.93
	c3.531-2.428,3.751-2.648,3.751-5.076s-3.531-11.034-2.869-15.228c0.662-4.192,2.207-13.902,3.972-15.006s4.855-4.855,4.855-4.855
	S61.334,172.095,61.113,172.536z"/>
<path fill-rule="evenodd" clip-rule="evenodd" fill="#E97E24" stroke="#000000" stroke-width="1.0001" stroke-linecap="round" stroke-miterlimit="2.6131" d="
	M166.819,191.956c1.785-1.755,16.246-10.12,9.509-11.494c-7.066-1.441-9.927,0.926-15.631,4.912
	c-3.592,2.511-8.418,6.547-13.316,3.568c-2.25-1.368-15.173-4.384-15.429-4.597c0.107,0.287-0.998-0.086-1.104-0.113
	c-3.44,0.107-5.366,0.967-8.241-0.183c-0.2-0.08-2.146,0.077-2.85,1.173c-4.013,0.237,9.519,8.443,14.401,10.063
	c6.979,2.315,12.485,7.846,18.814,5.574C156.601,199.558,161.99,195.46,166.819,191.956z"/>
<path fill-rule="evenodd" clip-rule="evenodd" fill="#E97E24" stroke="#000000" stroke-width="1.0001" stroke-linecap="round" stroke-miterlimit="2.6131" d="
	M129.524,253.195c-2.841-1.63-9.58-0.31-9.931,1.013c-1.385,5.224,7.87,4.169,12.138,7.705c0.797,0.66,14.965,5.798,16.829,4.47
	c0.4-0.285,3.527-0.224,7.062-3.07c2.331-1.877,23.24-14.404,14.71-17.068c-0.425-0.133-3.678,1.459-6.822,1.324
	c-2.183-0.094-9.728,6.372-13.682,8.241c-2.973,1.405-12.857,0.941-15.725-0.902C134.086,254.897,130.771,253.911,129.524,253.195z"
	/>
<path fill-rule="evenodd" clip-rule="evenodd" fill="#E97E24" stroke="#000000" stroke-width="1.0001" stroke-linecap="round" stroke-miterlimit="2.6131" d="
	M276.61,131.82c-1.459,3.825,8.896,9.246-4.322,16.585c-3.349,1.859-2.406,5.088-3.455,6.571c-1.555-0.131,1.561,5.932,1.929,5.643
	c4.056-3.183,27.968-18.354,20.726-23.096C291.187,137.327,279.861,133.363,276.61,131.82z"/>
<path fill-rule="evenodd" clip-rule="evenodd" fill="#E97E24" stroke="#000000" stroke-width="1.0001" stroke-linecap="round" stroke-miterlimit="2.6131" d="
	M269.658,70.47c-4.571,3.176,2.633,9.581,3.973,8.389c7.386,1.636,19.378,5.308,7.043,12.611c-7.961,4.713-4.707,7.708-6.476,8.625
	c-0.054,0.241,1.396,5.252,2.024,4.855c3.434-2.175,11.067-5.087,14.123-9.672c0.537-0.805,8.049-5.154,8.424-8.606
	c0.187-1.716,1.699-2.422-2.206-4.981C295.129,80.751,270.177,70.11,269.658,70.47z"/>
</svg>
