<svg width="35" height="35" viewBox="0 0 35 35" fill="none" xmlns="http://www.w3.org/2000/svg">
<path d="M7.29167 30.625C6.48958 30.625 5.80319 30.3397 5.2325 29.769C4.66181 29.1983 4.37597 28.5114 4.375 27.7083V7.29167C4.375 6.48958 4.66083 5.80319 5.2325 5.2325C5.80417 4.66181 6.49056 4.37597 7.29167 4.375H27.7083C28.5104 4.375 29.1973 4.66083 29.769 5.2325C30.3406 5.80417 30.626 6.49056 30.625 7.29167V27.7083C30.625 28.5104 30.3397 29.1973 29.769 29.769C29.1983 30.3406 28.5114 30.626 27.7083 30.625H7.29167ZM10.2083 24.7917H20.4167V21.875H10.2083V24.7917ZM10.2083 18.9583H24.7917V16.0417H10.2083V18.9583ZM10.2083 13.125H24.7917V10.2083H10.2083V13.125Z" fill="black"/>
</svg>
