<svg width="20" height="21" viewBox="0 0 20 21" fill="none" xmlns="http://www.w3.org/2000/svg">
<path d="M8.40107 3.64057H3.11459C2.55377 3.64057 2.01591 3.86336 1.61935 4.25992C1.22279 4.65649 1 5.19434 1 5.75516V17.3854C1 17.9462 1.22279 18.4841 1.61935 18.8807C2.01591 19.2772 2.55377 19.5 3.11459 19.5H14.7448C15.3057 19.5 15.8435 19.2772 16.2401 18.8807C16.6366 18.4841 16.8594 17.9462 16.8594 17.3854V12.0989M15.3644 2.14556C15.5595 1.94359 15.7928 1.7825 16.0508 1.67168C16.3088 1.56085 16.5863 1.50252 16.867 1.50008C17.1478 1.49764 17.4263 1.55114 17.6861 1.65747C17.946 1.76379 18.1821 1.9208 18.3807 2.11935C18.5792 2.31789 18.7362 2.55399 18.8425 2.81387C18.9489 3.07374 19.0024 3.35219 18.9999 3.63296C18.9975 3.91374 18.9391 4.19122 18.8283 4.4492C18.7175 4.70719 18.5564 4.94053 18.3544 5.13559L9.27651 14.2135H6.28648V11.2235L15.3644 2.14556Z" stroke="white" stroke-width="2" stroke-linecap="round" stroke-linejoin="round"/>
</svg>
