<svg width="40" height="31" viewBox="0 0 40 31" fill="none" xmlns="http://www.w3.org/2000/svg">
<path fill-rule="evenodd" clip-rule="evenodd" d="M4 0C2.93913 0 1.92172 0.362896 1.17157 1.00885C0.421427 1.65481 0 2.53092 0 3.44444V27.5556C0 28.4691 0.421427 29.3452 1.17157 29.9911C1.92172 30.6371 2.93913 31 4 31H36C37.0609 31 38.0783 30.6371 38.8284 29.9911C39.5786 29.3452 40 28.4691 40 27.5556V3.44444C40 2.53092 39.5786 1.65481 38.8284 1.00885C38.0783 0.362896 37.0609 0 36 0H4ZM13.25 9.69611C13.2944 9.36685 13.4275 9.05108 13.6388 8.774C13.85 8.49691 14.1336 8.26618 14.4668 8.10022C14.8 7.93425 15.1736 7.83764 15.5579 7.8181C15.9422 7.79856 16.3264 7.85663 16.68 7.98767C17.688 8.35967 19.816 9.19667 22.512 10.5366C24.4059 11.4701 26.2356 12.4971 27.992 13.6124C28.3007 13.8102 28.5513 14.0674 28.724 14.3634C28.8968 14.6594 28.9867 14.9862 28.9867 15.3174C28.9867 15.6487 28.8968 15.9754 28.724 16.2715C28.5513 16.5675 28.3007 16.8247 27.992 17.0224C26.2356 18.1367 24.4059 19.1625 22.512 20.0949C20.6267 21.0417 18.6795 21.8939 16.68 22.6472C16.3265 22.7786 15.9421 22.837 15.5577 22.8176C15.1733 22.7983 14.7995 22.7017 14.4661 22.5357C14.1328 22.3697 13.8492 22.1388 13.638 21.8615C13.4269 21.5842 13.294 21.2682 13.25 20.9388C13.0082 19.0723 12.8906 17.1955 12.898 15.3174C12.898 12.6463 13.122 10.6347 13.25 9.69611Z" fill="black"/>
</svg>
